<?xml version="1.0" standalone="no"?>
<!DOCTYPE svg PUBLIC "-//W3C//DTD SVG 20010904//EN"
 "http://www.w3.org/TR/2001/REC-SVG-20010904/DTD/svg10.dtd">
<svg version="1.0" xmlns="http://www.w3.org/2000/svg"
 width="1084.000000pt" height="1084.000000pt" viewBox="0 0 1084.000000 1084.000000"
 preserveAspectRatio="xMidYMid meet">
<metadata>
Created by potrace 1.11, written by Peter Selinger 2001-2013
</metadata>
<g transform="translate(0.000000,1084.000000) scale(0.100000,-0.100000)"
fill="#000000" stroke="none">
<path d="M7247 9364 c-1 -2 -17 -6 -35 -9 -94 -16 -95 -16 -1103 -1024 -928
-928 -977 -979 -997 -1034 -105 -281 164 -534 436 -411 46 21 1962 1930 1998
1991 34 56 45 97 45 168 1 122 -67 231 -179 285 -36 17 -156 42 -165 34z"/>
<path d="M195 9330 c-96 -46 -154 -113 -179 -206 -20 -75 -17 -7371 3 -7431
31 -95 125 -181 227 -206 38 -10 530 -13 2294 -11 1235 1 2256 4 2269 7 84 21
169 91 211 173 21 42 25 63 25 139 0 74 -4 98 -23 137 -43 86 -143 163 -225
174 -23 3 -967 7 -2097 7 l-2055 2 -1 3305 -1 3305 2556 0 2556 0 55 28 c114
59 173 152 177 280 3 114 -39 202 -129 267 -89 65 127 60 -2875 60 l-2728 -1
-60 -29z"/>
<path d="M9215 9352 c-34 -2 -130 -14 -222 -27 -11 -2 -30 -6 -41 -9 -11 -4
-29 -8 -39 -10 -47 -9 -187 -61 -270 -101 -118 -55 -241 -136 -335 -218 -40
-35 -727 -718 -1526 -1517 l-1453 -1453 -417 415 c-229 228 -433 425 -452 438
-19 13 -37 27 -40 30 -15 17 -176 113 -250 148 -131 62 -298 113 -415 126 -28
3 -61 8 -75 11 -29 6 -284 7 -320 1 -14 -3 -45 -7 -70 -10 -183 -23 -426 -115
-595 -223 -334 -216 -585 -562 -671 -923 -43 -177 -55 -385 -33 -556 37 -293
173 -584 374 -802 138 -150 1933 -1936 1959 -1949 86 -45 205 -48 288 -9 48
23 128 87 128 102 0 3 8 18 19 32 27 40 44 126 37 187 -14 121 28 75 -1015
1120 -533 534 -986 995 -1008 1025 -146 205 -194 492 -121 729 81 261 290 485
550 587 123 48 325 72 438 52 25 -5 56 -10 70 -13 103 -18 263 -95 353 -169
29 -23 277 -268 552 -543 275 -275 518 -511 540 -526 110 -71 261 -65 364 14
14 11 746 739 1626 1618 1059 1058 1620 1610 1658 1635 84 55 190 101 287 127
119 31 299 31 425 0 87 -21 295 -113 295 -131 0 -5 9 -12 21 -15 33 -11 170
-154 221 -230 53 -81 97 -181 124 -280 14 -54 18 -104 18 -220 -1 -134 -4
-160 -28 -240 -31 -103 -81 -206 -139 -285 -23 -30 -120 -133 -216 -228 -429
-423 -1231 -1214 -1382 -1363 -92 -90 -400 -394 -685 -675 -286 -282 -596
-588 -691 -680 -288 -284 -1220 -1204 -1311 -1294 -138 -138 -207 -243 -256
-391 -32 -97 -41 -158 -39 -289 2 -275 136 -531 363 -697 302 -220 730 -216
1035 9 33 25 930 914 1993 1978 1508 1508 1939 1944 1959 1983 35 69 42 173
17 245 -64 180 -266 265 -442 186 -25 -11 -685 -664 -1972 -1950 -1521 -1520
-1945 -1938 -1980 -1953 -57 -26 -141 -27 -195 -2 -125 56 -179 219 -112 333
14 24 144 160 290 303 146 143 510 501 808 796 299 295 614 605 699 689 148
145 1026 1011 1380 1360 92 91 387 381 655 645 268 264 513 512 545 550 177
216 283 455 336 755 10 58 12 320 4 395 -51 432 -269 805 -629 1071 -89 66
-282 168 -386 203 -194 65 -412 95 -600 83z"/>
<path d="M9100 8024 c-95 -34 -101 -40 -1939 -1878 l-1832 -1832 -759 758
c-857 857 -806 814 -955 812 -66 -1 -89 -6 -132 -27 -64 -33 -117 -86 -151
-152 -36 -69 -37 -195 -2 -270 19 -41 186 -213 899 -928 482 -483 894 -891
916 -906 62 -42 113 -57 190 -56 145 2 -34 -166 2149 2017 1580 1581 1967
1973 1986 2013 20 42 25 65 25 140 0 78 -4 97 -27 140 -59 112 -145 166 -273
171 -44 2 -87 1 -95 -2z"/>
<path d="M10463 4559 c-29 -4 -72 -16 -97 -28 -33 -16 -367 -344 -1285 -1262
-1383 -1383 -1295 -1286 -1295 -1429 0 -60 5 -86 26 -131 32 -69 87 -127 153
-159 70 -35 208 -35 275 -1 32 16 407 384 1287 1264 1041 1040 1246 1249 1268
1295 61 124 28 286 -76 375 -73 63 -158 89 -256 76z"/>
<path d="M10437 3019 c-20 -5 -54 -18 -75 -28 -43 -22 -970 -943 -1007 -1000
-13 -20 -29 -56 -35 -81 -75 -280 223 -505 473 -357 23 14 254 239 514 499
533 534 516 513 517 658 0 73 -3 92 -27 137 -54 104 -148 167 -262 176 -33 3
-77 1 -98 -4z"/>
</g>
</svg>
